<mxfile host="Electron" modified="2024-05-11T13:07:21.787Z" agent="Mozilla/5.0 (Windows NT 10.0; Win64; x64) AppleWebKit/537.36 (KHTML, like Gecko) draw.io/24.2.5 Chrome/120.0.6099.109 Electron/28.1.0 Safari/537.36" etag="sgvVj2shtEsNOrGJpm_I" version="24.2.5" type="device">
  <diagram name="第 1 页" id="Sf4E3HGws6S3_wrzmAhF">
    <mxGraphModel dx="1444" dy="960" grid="1" gridSize="10" guides="1" tooltips="1" connect="1" arrows="1" fold="1" page="1" pageScale="1" pageWidth="1169" pageHeight="827" math="0" shadow="0">
      <root>
        <mxCell id="0" />
        <mxCell id="1" parent="0" />
        <mxCell id="gCYg-Fghnj7vj3xY7Wb9-7" value="黑马甄选分层建模明细" style="rounded=0;whiteSpace=wrap;html=1;" parent="1" vertex="1">
          <mxGeometry x="10" y="10" width="1140" height="30" as="geometry" />
        </mxCell>
        <mxCell id="gCYg-Fghnj7vj3xY7Wb9-8" value="ADS&lt;div&gt;数据应用层（天）&lt;/div&gt;" style="rounded=0;whiteSpace=wrap;html=1;" parent="1" vertex="1">
          <mxGeometry x="10" y="50" width="40" height="100" as="geometry" />
        </mxCell>
        <mxCell id="gCYg-Fghnj7vj3xY7Wb9-9" value="DWS&lt;div&gt;服务层&lt;/div&gt;" style="rounded=0;whiteSpace=wrap;html=1;" parent="1" vertex="1">
          <mxGeometry x="10" y="170" width="40" height="100" as="geometry" />
        </mxCell>
        <mxCell id="gCYg-Fghnj7vj3xY7Wb9-10" value="DWM&lt;div&gt;中间层&lt;/div&gt;" style="rounded=0;whiteSpace=wrap;html=1;" parent="1" vertex="1">
          <mxGeometry x="10" y="300" width="40" height="110" as="geometry" />
        </mxCell>
        <mxCell id="gCYg-Fghnj7vj3xY7Wb9-11" value="DWD明细层" style="rounded=0;whiteSpace=wrap;html=1;" parent="1" vertex="1">
          <mxGeometry x="10" y="440" width="40" height="170" as="geometry" />
        </mxCell>
        <mxCell id="gCYg-Fghnj7vj3xY7Wb9-13" value="ODS原始层" style="rounded=0;whiteSpace=wrap;html=1;" parent="1" vertex="1">
          <mxGeometry x="10" y="630" width="40" height="180" as="geometry" />
        </mxCell>
        <mxCell id="gCYg-Fghnj7vj3xY7Wb9-19" value="ADS&lt;div&gt;数据应用层（天）&lt;/div&gt;" style="rounded=0;whiteSpace=wrap;html=1;" parent="1" vertex="1">
          <mxGeometry x="1110" y="50" width="40" height="100" as="geometry" />
        </mxCell>
        <mxCell id="gCYg-Fghnj7vj3xY7Wb9-20" value="DWS&lt;div&gt;服务层&lt;/div&gt;" style="rounded=0;whiteSpace=wrap;html=1;" parent="1" vertex="1">
          <mxGeometry x="1110" y="170" width="40" height="100" as="geometry" />
        </mxCell>
        <mxCell id="gCYg-Fghnj7vj3xY7Wb9-21" value="DWM&lt;div&gt;中间层&lt;/div&gt;" style="rounded=0;whiteSpace=wrap;html=1;" parent="1" vertex="1">
          <mxGeometry x="1110" y="300" width="40" height="110" as="geometry" />
        </mxCell>
        <mxCell id="gCYg-Fghnj7vj3xY7Wb9-22" value="DWD明细层" style="rounded=0;whiteSpace=wrap;html=1;" parent="1" vertex="1">
          <mxGeometry x="1110" y="440" width="40" height="170" as="geometry" />
        </mxCell>
        <mxCell id="gCYg-Fghnj7vj3xY7Wb9-23" value="ODS原始层" style="rounded=0;whiteSpace=wrap;html=1;" parent="1" vertex="1">
          <mxGeometry x="1110" y="630" width="40" height="180" as="geometry" />
        </mxCell>
        <mxCell id="gCYg-Fghnj7vj3xY7Wb9-24" value="" style="rounded=0;whiteSpace=wrap;html=1;" parent="1" vertex="1">
          <mxGeometry x="70" y="50" width="490" height="100" as="geometry" />
        </mxCell>
        <mxCell id="gCYg-Fghnj7vj3xY7Wb9-25" value="" style="rounded=0;whiteSpace=wrap;html=1;" parent="1" vertex="1">
          <mxGeometry x="584" y="50" width="490" height="100" as="geometry" />
        </mxCell>
        <mxCell id="gCYg-Fghnj7vj3xY7Wb9-26" value="" style="rounded=0;whiteSpace=wrap;html=1;" parent="1" vertex="1">
          <mxGeometry x="65" y="170" width="490" height="100" as="geometry" />
        </mxCell>
        <mxCell id="gCYg-Fghnj7vj3xY7Wb9-27" value="" style="rounded=0;whiteSpace=wrap;html=1;" parent="1" vertex="1">
          <mxGeometry x="595" y="170" width="490" height="100" as="geometry" />
        </mxCell>
        <mxCell id="gCYg-Fghnj7vj3xY7Wb9-28" value="" style="rounded=0;whiteSpace=wrap;html=1;" parent="1" vertex="1">
          <mxGeometry x="70" y="300" width="490" height="100" as="geometry" />
        </mxCell>
        <mxCell id="gCYg-Fghnj7vj3xY7Wb9-29" value="" style="rounded=0;whiteSpace=wrap;html=1;" parent="1" vertex="1">
          <mxGeometry x="590" y="310" width="490" height="100" as="geometry" />
        </mxCell>
        <mxCell id="gCYg-Fghnj7vj3xY7Wb9-30" value="" style="rounded=0;whiteSpace=wrap;html=1;" parent="1" vertex="1">
          <mxGeometry x="80" y="440" width="320" height="170" as="geometry" />
        </mxCell>
        <mxCell id="gCYg-Fghnj7vj3xY7Wb9-31" value="" style="rounded=0;whiteSpace=wrap;html=1;" parent="1" vertex="1">
          <mxGeometry x="430" y="440" width="320" height="170" as="geometry" />
        </mxCell>
        <mxCell id="gCYg-Fghnj7vj3xY7Wb9-32" value="" style="rounded=0;whiteSpace=wrap;html=1;" parent="1" vertex="1">
          <mxGeometry x="770" y="440" width="310" height="170" as="geometry" />
        </mxCell>
        <mxCell id="gCYg-Fghnj7vj3xY7Wb9-33" value="" style="rounded=0;whiteSpace=wrap;html=1;" parent="1" vertex="1">
          <mxGeometry x="90" y="630" width="1010" height="190" as="geometry" />
        </mxCell>
        <mxCell id="gCYg-Fghnj7vj3xY7Wb9-34" value="&lt;font style=&quot;font-size: 5px;&quot;&gt;&lt;font style=&quot;font-size: 5px;&quot;&gt;&lt;font style=&quot;font-size: 5px;&quot;&gt;ods_sale_city_category_&lt;/font&gt;&lt;font style=&quot;font-size: 5px;&quot;&gt;&lt;font style=&quot;font-size: 5px;&quot;&gt;target&lt;/font&gt;&lt;/font&gt;&lt;/font&gt;&lt;/font&gt;&lt;div style=&quot;font-size: 5px;&quot;&gt;&lt;span style=&quot;background-color: initial;&quot;&gt;&lt;font style=&quot;font-size: 5px;&quot;&gt;城市分类销售目标表&lt;/font&gt;&lt;/span&gt;&lt;/div&gt;" style="rounded=0;whiteSpace=wrap;html=1;" parent="1" vertex="1">
          <mxGeometry x="110" y="640" width="120" height="20" as="geometry" />
        </mxCell>
        <mxCell id="gCYg-Fghnj7vj3xY7Wb9-35" value="&lt;font style=&quot;font-size: 5px;&quot;&gt;ods_sale_store_target&amp;nbsp;&lt;/font&gt;&lt;div style=&quot;font-size: 5px;&quot;&gt;&lt;font style=&quot;font-size: 5px;&quot;&gt;门店月目标销售额&lt;/font&gt;&lt;/div&gt;" style="rounded=0;whiteSpace=wrap;html=1;" parent="1" vertex="1">
          <mxGeometry x="110" y="670" width="120" height="20" as="geometry" />
        </mxCell>
        <mxCell id="gCYg-Fghnj7vj3xY7Wb9-37" value="&lt;font style=&quot;font-size: 5px;&quot;&gt;ods_sale_store_info&amp;nbsp;&lt;/font&gt;&lt;div style=&quot;font-size: 5px;&quot;&gt;&lt;font style=&quot;font-size: 5px;&quot;&gt;门店销售信息表&lt;/font&gt;&lt;/div&gt;" style="rounded=0;whiteSpace=wrap;html=1;" parent="1" vertex="1">
          <mxGeometry x="110" y="700" width="120" height="20" as="geometry" />
        </mxCell>
        <mxCell id="gCYg-Fghnj7vj3xY7Wb9-38" value="&lt;font style=&quot;font-size: 5px;&quot;&gt;ods_sale_shop_order&amp;nbsp; &amp;nbsp;&lt;/font&gt;&lt;div style=&quot;font-size: 5px;&quot;&gt;&lt;font style=&quot;font-size: 5px;&quot;&gt;商城订单表&lt;/font&gt;&lt;/div&gt;" style="rounded=0;whiteSpace=wrap;html=1;" parent="1" vertex="1">
          <mxGeometry x="110" y="730" width="120" height="20" as="geometry" />
        </mxCell>
        <mxCell id="gCYg-Fghnj7vj3xY7Wb9-39" value="&lt;font style=&quot;font-size: 5px;&quot;&gt;ods_sale_shop_item&amp;nbsp;&lt;/font&gt;&lt;div style=&quot;font-size: 5px;&quot;&gt;&lt;font style=&quot;font-size: 5px;&quot;&gt;订单明细表&lt;/font&gt;&lt;/div&gt;" style="rounded=0;whiteSpace=wrap;html=1;" parent="1" vertex="1">
          <mxGeometry x="110" y="760" width="120" height="20" as="geometry" />
        </mxCell>
        <mxCell id="gCYg-Fghnj7vj3xY7Wb9-47" value="&lt;font style=&quot;font-size: 5px;&quot;&gt;ods_sale_shop_refund&amp;nbsp;&amp;nbsp;&lt;/font&gt;&lt;div style=&quot;font-size: 5px;&quot;&gt;&lt;font style=&quot;font-size: 5px;&quot;&gt;&amp;nbsp;订单退单表&lt;/font&gt;&lt;/div&gt;" style="rounded=0;whiteSpace=wrap;html=1;" parent="1" vertex="1">
          <mxGeometry x="110" y="790" width="120" height="20" as="geometry" />
        </mxCell>
        <mxCell id="gCYg-Fghnj7vj3xY7Wb9-48" value="&lt;font style=&quot;font-size: 5px;&quot;&gt;ods_sale_shop_refund_item&lt;/font&gt;&lt;div style=&quot;font-size: 5px;&quot;&gt;&lt;font style=&quot;font-size: 5px;&quot;&gt;退单明细表&lt;/font&gt;&lt;/div&gt;" style="rounded=0;whiteSpace=wrap;html=1;" parent="1" vertex="1">
          <mxGeometry x="255" y="640" width="120" height="20" as="geometry" />
        </mxCell>
        <mxCell id="gCYg-Fghnj7vj3xY7Wb9-49" value="&lt;font style=&quot;font-size: 5px;&quot;&gt;ods_sale_store_sale_pay&lt;/font&gt;&lt;div style=&quot;font-size: 5px;&quot;&gt;&lt;font style=&quot;font-size: 5px;&quot;&gt;门店销售支付表&lt;/font&gt;&lt;/div&gt;" style="rounded=0;whiteSpace=wrap;html=1;" parent="1" vertex="1">
          <mxGeometry x="255" y="670" width="120" height="20" as="geometry" />
        </mxCell>
        <mxCell id="gCYg-Fghnj7vj3xY7Wb9-50" value="&lt;font style=&quot;font-size: 5px;&quot;&gt;ods_sale_shop_pay&lt;/font&gt;&lt;div style=&quot;font-size: 5px;&quot;&gt;&lt;font style=&quot;font-size: 5px;&quot;&gt;线上支付明细&lt;/font&gt;&lt;/div&gt;" style="rounded=0;whiteSpace=wrap;html=1;" parent="1" vertex="1">
          <mxGeometry x="255" y="700" width="120" height="20" as="geometry" />
        </mxCell>
        <mxCell id="gCYg-Fghnj7vj3xY7Wb9-51" value="&lt;font style=&quot;font-size: 5px;&quot;&gt;ods_sale_store_dtl&lt;/font&gt;&lt;div style=&quot;font-size: 5px;&quot;&gt;&lt;font style=&quot;font-size: 5px;&quot;&gt;门店销售明细表&lt;/font&gt;&lt;/div&gt;" style="rounded=0;whiteSpace=wrap;html=1;" parent="1" vertex="1">
          <mxGeometry x="255" y="730" width="120" height="20" as="geometry" />
        </mxCell>
        <mxCell id="gCYg-Fghnj7vj3xY7Wb9-61" value="&lt;font style=&quot;font-size: 5px;&quot;&gt;ods_order_store_require&lt;/font&gt;&lt;div style=&quot;font-size: 5px;&quot;&gt;&lt;font style=&quot;font-size: 5px;&quot;&gt;门店要货单&lt;/font&gt;&lt;/div&gt;" style="rounded=0;whiteSpace=wrap;html=1;" parent="1" vertex="1">
          <mxGeometry x="410" y="640" width="120" height="20" as="geometry" />
        </mxCell>
        <mxCell id="gCYg-Fghnj7vj3xY7Wb9-62" value="&lt;font style=&quot;font-size: 5px;&quot;&gt;ods_order_store_alloc_in&lt;/font&gt;&lt;div style=&quot;font-size: 5px;&quot;&gt;&lt;font style=&quot;font-size: 5px;&quot;&gt;门店调入单&lt;/font&gt;&lt;/div&gt;" style="rounded=0;whiteSpace=wrap;html=1;" parent="1" vertex="1">
          <mxGeometry x="410" y="670" width="120" height="20" as="geometry" />
        </mxCell>
        <mxCell id="gCYg-Fghnj7vj3xY7Wb9-63" value="&lt;font style=&quot;font-size: 5px;&quot;&gt;ods_order_store_alloc_out&lt;/font&gt;&lt;div style=&quot;font-size: 5px;&quot;&gt;&lt;font style=&quot;font-size: 5px;&quot;&gt;门店调出单&lt;/font&gt;&lt;/div&gt;" style="rounded=0;whiteSpace=wrap;html=1;" parent="1" vertex="1">
          <mxGeometry x="410" y="700" width="120" height="20" as="geometry" />
        </mxCell>
        <mxCell id="gCYg-Fghnj7vj3xY7Wb9-64" value="&lt;font style=&quot;font-size: 5px;&quot;&gt;ods_order_shore_return _to_vendor&lt;/font&gt;&lt;div style=&quot;font-size: 5px;&quot;&gt;&lt;font style=&quot;font-size: 5px;&quot;&gt;门店退货单&lt;/font&gt;&lt;/div&gt;" style="rounded=0;whiteSpace=wrap;html=1;" parent="1" vertex="1">
          <mxGeometry x="410" y="730" width="120" height="20" as="geometry" />
        </mxCell>
        <mxCell id="gCYg-Fghnj7vj3xY7Wb9-65" value="&lt;font style=&quot;font-size: 5px;&quot;&gt;ods_order_dc_send&lt;/font&gt;&lt;div style=&quot;font-size: 5px;&quot;&gt;&lt;font style=&quot;font-size: 5px;&quot;&gt;仓库配送单&lt;/font&gt;&lt;/div&gt;" style="rounded=0;whiteSpace=wrap;html=1;" parent="1" vertex="1">
          <mxGeometry x="410" y="760" width="120" height="20" as="geometry" />
        </mxCell>
        <mxCell id="gCYg-Fghnj7vj3xY7Wb9-66" value="&lt;font style=&quot;font-size: 5px;&quot;&gt;ods_order_store_return _to_dc&lt;/font&gt;&lt;div style=&quot;font-size: 5px;&quot;&gt;&lt;font style=&quot;font-size: 5px;&quot;&gt;门店退配单&lt;/font&gt;&lt;/div&gt;" style="rounded=0;whiteSpace=wrap;html=1;" parent="1" vertex="1">
          <mxGeometry x="410" y="790" width="120" height="20" as="geometry" />
        </mxCell>
        <mxCell id="gCYg-Fghnj7vj3xY7Wb9-67" value="&lt;font style=&quot;font-size: 5px;&quot;&gt;ods_order_store_receive&lt;/font&gt;&lt;div style=&quot;font-size: 5px;&quot;&gt;&lt;font style=&quot;font-size: 5px;&quot;&gt;门店收货单&lt;/font&gt;&lt;/div&gt;" style="rounded=0;whiteSpace=wrap;html=1;" parent="1" vertex="1">
          <mxGeometry x="570" y="640" width="120" height="20" as="geometry" />
        </mxCell>
        <mxCell id="gCYg-Fghnj7vj3xY7Wb9-73" value="&lt;font style=&quot;font-size: 5px;&quot;&gt;ods_mem_store_amount_record&lt;/font&gt;&lt;div style=&quot;font-size: 5px;&quot;&gt;&lt;font style=&quot;font-size: 5px;&quot;&gt;会员余额明细表&lt;/font&gt;&lt;/div&gt;" style="rounded=0;whiteSpace=wrap;html=1;" parent="1" vertex="1">
          <mxGeometry x="720" y="640" width="120" height="20" as="geometry" />
        </mxCell>
        <mxCell id="gCYg-Fghnj7vj3xY7Wb9-74" value="&lt;font style=&quot;font-size: 5px;&quot;&gt;ods_mem_user_point_log_detailed&lt;/font&gt;&lt;div style=&quot;font-size: 5px;&quot;&gt;&lt;font style=&quot;font-size: 5px;&quot;&gt;用户积分变动明细表&lt;/font&gt;&lt;/div&gt;" style="rounded=0;whiteSpace=wrap;html=1;" parent="1" vertex="1">
          <mxGeometry x="720" y="670" width="120" height="20" as="geometry" />
        </mxCell>
        <mxCell id="gCYg-Fghnj7vj3xY7Wb9-75" value="&lt;font style=&quot;font-size: 5px;&quot;&gt;ods_mem_user_point_detailed&lt;/font&gt;&lt;div style=&quot;font-size: 5px;&quot;&gt;&lt;font style=&quot;font-size: 5px;&quot;&gt;会员积分明细&lt;/font&gt;&lt;/div&gt;" style="rounded=0;whiteSpace=wrap;html=1;" parent="1" vertex="1">
          <mxGeometry x="720" y="700" width="120" height="20" as="geometry" />
        </mxCell>
        <mxCell id="gCYg-Fghnj7vj3xY7Wb9-76" value="&lt;font style=&quot;font-size: 5px;&quot;&gt;ods_mem_member_union&lt;/font&gt;&lt;div style=&quot;font-size: 5px;&quot;&gt;&lt;font style=&quot;font-size: 5px;&quot;&gt;会员基础信息表&lt;/font&gt;&lt;/div&gt;" style="rounded=0;whiteSpace=wrap;html=1;" parent="1" vertex="1">
          <mxGeometry x="720" y="730" width="120" height="20" as="geometry" />
        </mxCell>
        <mxCell id="gCYg-Fghnj7vj3xY7Wb9-85" value="&lt;font style=&quot;font-size: 5px;&quot;&gt;ods_stock_stock_adj&lt;/font&gt;&lt;div style=&quot;font-size: 5px;&quot;&gt;&lt;font style=&quot;font-size: 5px;&quot;&gt;门店库调单&lt;/font&gt;&lt;/div&gt;" style="rounded=0;whiteSpace=wrap;html=1;" parent="1" vertex="1">
          <mxGeometry x="870" y="640" width="120" height="20" as="geometry" />
        </mxCell>
        <mxCell id="gCYg-Fghnj7vj3xY7Wb9-86" value="&lt;font style=&quot;font-size: 5px;&quot;&gt;od&lt;font style=&quot;font-size: 5px;&quot;&gt;s_stock_store_goods_stock_data_day&lt;/font&gt;&lt;/font&gt;&lt;div style=&quot;font-size: 5px;&quot;&gt;&lt;font style=&quot;font-size: 5px;&quot;&gt;门店商品库存天表&lt;/font&gt;&lt;/div&gt;" style="rounded=0;whiteSpace=wrap;html=1;" parent="1" vertex="1">
          <mxGeometry x="870" y="670" width="120" height="20" as="geometry" />
        </mxCell>
        <mxCell id="gCYg-Fghnj7vj3xY7Wb9-92" value="&lt;font style=&quot;font-size: 5px;&quot;&gt;dwd_stock_store_&lt;/font&gt;&lt;div style=&quot;font-size: 5px;&quot;&gt;&lt;font style=&quot;font-size: 5px;&quot;&gt;stock_adj_i&lt;/font&gt;&lt;/div&gt;&lt;div style=&quot;font-size: 5px;&quot;&gt;&lt;font style=&quot;font-size: 5px;&quot;&gt;门店库调单&lt;/font&gt;&lt;/div&gt;" style="rounded=0;whiteSpace=wrap;html=1;" parent="1" vertex="1">
          <mxGeometry x="90" y="450" width="40" height="40" as="geometry" />
        </mxCell>
        <mxCell id="M7vRHAxpr6XtETw_-yY6-61" style="edgeStyle=orthogonalEdgeStyle;rounded=0;orthogonalLoop=1;jettySize=auto;html=1;entryX=0.5;entryY=1;entryDx=0;entryDy=0;" edge="1" parent="1" source="gCYg-Fghnj7vj3xY7Wb9-96" target="gCYg-Fghnj7vj3xY7Wb9-127">
          <mxGeometry relative="1" as="geometry" />
        </mxCell>
        <mxCell id="gCYg-Fghnj7vj3xY7Wb9-96" value="&lt;font style=&quot;font-size: 5px;&quot;&gt;dwm_order_store&lt;/font&gt;&lt;div style=&quot;font-size: 5px;&quot;&gt;&lt;font style=&quot;font-size: 5px;&quot;&gt;_alloc_in_i&lt;/font&gt;&lt;/div&gt;&lt;div style=&quot;font-size: 5px;&quot;&gt;&lt;font style=&quot;font-size: 5px;&quot;&gt;门店调入单&lt;/font&gt;&lt;/div&gt;" style="rounded=0;whiteSpace=wrap;html=1;" parent="1" vertex="1">
          <mxGeometry x="132.5" y="450" width="40" height="40" as="geometry" />
        </mxCell>
        <mxCell id="M7vRHAxpr6XtETw_-yY6-63" style="edgeStyle=orthogonalEdgeStyle;rounded=0;orthogonalLoop=1;jettySize=auto;html=1;exitX=0.5;exitY=0;exitDx=0;exitDy=0;" edge="1" parent="1" source="gCYg-Fghnj7vj3xY7Wb9-97">
          <mxGeometry relative="1" as="geometry">
            <mxPoint x="190" y="390" as="targetPoint" />
          </mxGeometry>
        </mxCell>
        <mxCell id="gCYg-Fghnj7vj3xY7Wb9-97" value="&lt;font style=&quot;font-size: 5px;&quot;&gt;dwd_order_store&lt;/font&gt;&lt;div style=&quot;font-size: 5px;&quot;&gt;&lt;font style=&quot;font-size: 5px;&quot;&gt;receive_i&lt;/font&gt;&lt;/div&gt;&lt;div style=&quot;font-size: 5px;&quot;&gt;&lt;font style=&quot;font-size: 5px;&quot;&gt;门店收货单&lt;/font&gt;&lt;/div&gt;" style="rounded=0;whiteSpace=wrap;html=1;" parent="1" vertex="1">
          <mxGeometry x="190" y="450" width="40" height="40" as="geometry" />
        </mxCell>
        <mxCell id="M7vRHAxpr6XtETw_-yY6-67" style="edgeStyle=orthogonalEdgeStyle;rounded=0;orthogonalLoop=1;jettySize=auto;html=1;exitX=0.5;exitY=0;exitDx=0;exitDy=0;entryX=0.25;entryY=1;entryDx=0;entryDy=0;" edge="1" parent="1" source="gCYg-Fghnj7vj3xY7Wb9-98" target="gCYg-Fghnj7vj3xY7Wb9-128">
          <mxGeometry relative="1" as="geometry">
            <Array as="points">
              <mxPoint x="260" y="410" />
              <mxPoint x="255" y="410" />
            </Array>
          </mxGeometry>
        </mxCell>
        <mxCell id="gCYg-Fghnj7vj3xY7Wb9-98" value="&lt;font style=&quot;font-size: 5px;&quot;&gt;dwd_order_store_&lt;/font&gt;&lt;div style=&quot;font-size: 5px;&quot;&gt;&lt;font style=&quot;font-size: 5px;&quot;&gt;require_i&lt;/font&gt;&lt;/div&gt;&lt;div style=&quot;font-size: 5px;&quot;&gt;&lt;font style=&quot;font-size: 5px;&quot;&gt;门店要货单&lt;/font&gt;&lt;/div&gt;" style="rounded=0;whiteSpace=wrap;html=1;" parent="1" vertex="1">
          <mxGeometry x="240" y="450" width="40" height="40" as="geometry" />
        </mxCell>
        <mxCell id="M7vRHAxpr6XtETw_-yY6-68" style="edgeStyle=orthogonalEdgeStyle;rounded=0;orthogonalLoop=1;jettySize=auto;html=1;entryX=0.5;entryY=1;entryDx=0;entryDy=0;" edge="1" parent="1" source="gCYg-Fghnj7vj3xY7Wb9-99" target="gCYg-Fghnj7vj3xY7Wb9-129">
          <mxGeometry relative="1" as="geometry" />
        </mxCell>
        <mxCell id="gCYg-Fghnj7vj3xY7Wb9-99" value="&lt;font style=&quot;font-size: 5px;&quot;&gt;dwd_sale_store_&lt;/font&gt;&lt;div style=&quot;font-size: 5px;&quot;&gt;&lt;font style=&quot;font-size: 5px;&quot;&gt;sale_dtl_i&lt;/font&gt;&lt;/div&gt;&lt;div style=&quot;font-size: 5px;&quot;&gt;&lt;font style=&quot;font-size: 5px;&quot;&gt;门店销售明细表（线下）&lt;/font&gt;&lt;/div&gt;" style="rounded=0;whiteSpace=wrap;html=1;" parent="1" vertex="1">
          <mxGeometry x="290" y="450" width="40" height="40" as="geometry" />
        </mxCell>
        <mxCell id="M7vRHAxpr6XtETw_-yY6-69" style="edgeStyle=orthogonalEdgeStyle;rounded=0;orthogonalLoop=1;jettySize=auto;html=1;exitX=0.5;exitY=0;exitDx=0;exitDy=0;" edge="1" parent="1" source="gCYg-Fghnj7vj3xY7Wb9-100">
          <mxGeometry relative="1" as="geometry">
            <mxPoint x="350" y="370" as="targetPoint" />
          </mxGeometry>
        </mxCell>
        <mxCell id="gCYg-Fghnj7vj3xY7Wb9-100" value="&lt;font style=&quot;font-size: 5px;&quot;&gt;dwd_sold_shop_&lt;/font&gt;&lt;div style=&quot;font-size: 5px;&quot;&gt;&lt;font style=&quot;font-size: 5px;&quot;&gt;order_dtl_i&lt;/font&gt;&lt;/div&gt;&lt;div style=&quot;font-size: 5px;&quot;&gt;&lt;font style=&quot;font-size: 5px;&quot;&gt;商城核销明细表（线上）&lt;/font&gt;&lt;/div&gt;" style="rounded=0;whiteSpace=wrap;html=1;" parent="1" vertex="1">
          <mxGeometry x="340" y="450" width="40" height="40" as="geometry" />
        </mxCell>
        <mxCell id="M7vRHAxpr6XtETw_-yY6-64" style="edgeStyle=orthogonalEdgeStyle;rounded=0;orthogonalLoop=1;jettySize=auto;html=1;exitX=1;exitY=0.5;exitDx=0;exitDy=0;" edge="1" parent="1" source="gCYg-Fghnj7vj3xY7Wb9-101">
          <mxGeometry relative="1" as="geometry">
            <mxPoint x="190" y="380" as="targetPoint" />
          </mxGeometry>
        </mxCell>
        <mxCell id="gCYg-Fghnj7vj3xY7Wb9-101" value="&lt;font style=&quot;font-size: 5px;&quot;&gt;dwd_order_store_&lt;/font&gt;&lt;div style=&quot;font-size: 5px;&quot;&gt;&lt;font style=&quot;font-size: 5px;&quot;&gt;alloc_out_i&lt;/font&gt;&lt;/div&gt;&lt;div style=&quot;font-size: 5px;&quot;&gt;&lt;font style=&quot;font-size: 5px;&quot;&gt;门店调出单&lt;/font&gt;&lt;/div&gt;" style="rounded=0;whiteSpace=wrap;html=1;" parent="1" vertex="1">
          <mxGeometry x="120" y="505" width="50" height="40" as="geometry" />
        </mxCell>
        <mxCell id="M7vRHAxpr6XtETw_-yY6-65" style="edgeStyle=orthogonalEdgeStyle;rounded=0;orthogonalLoop=1;jettySize=auto;html=1;exitX=0;exitY=0.5;exitDx=0;exitDy=0;" edge="1" parent="1" source="gCYg-Fghnj7vj3xY7Wb9-102">
          <mxGeometry relative="1" as="geometry">
            <mxPoint x="190" y="380" as="targetPoint" />
          </mxGeometry>
        </mxCell>
        <mxCell id="gCYg-Fghnj7vj3xY7Wb9-102" value="&lt;font style=&quot;font-size: 5px;&quot;&gt;dwd_order_store_&lt;/font&gt;&lt;div style=&quot;font-size: 5px;&quot;&gt;&lt;font style=&quot;font-size: 5px;&quot;&gt;return_to_vendor_i&lt;/font&gt;&lt;/div&gt;&lt;div style=&quot;font-size: 5px;&quot;&gt;&lt;font style=&quot;font-size: 5px;&quot;&gt;门店退货单&lt;/font&gt;&lt;/div&gt;" style="rounded=0;whiteSpace=wrap;html=1;" parent="1" vertex="1">
          <mxGeometry x="207.5" y="500" width="50" height="40" as="geometry" />
        </mxCell>
        <mxCell id="M7vRHAxpr6XtETw_-yY6-71" style="edgeStyle=orthogonalEdgeStyle;rounded=0;orthogonalLoop=1;jettySize=auto;html=1;exitX=0.5;exitY=0;exitDx=0;exitDy=0;" edge="1" parent="1" source="gCYg-Fghnj7vj3xY7Wb9-103">
          <mxGeometry relative="1" as="geometry">
            <mxPoint x="360" y="490" as="targetPoint" />
          </mxGeometry>
        </mxCell>
        <mxCell id="gCYg-Fghnj7vj3xY7Wb9-103" value="&lt;font style=&quot;font-size: 5px;&quot;&gt;dwd_sold_shop_&lt;/font&gt;&lt;div style=&quot;font-size: 5px;&quot;&gt;&lt;font style=&quot;font-size: 5px;&quot;&gt;order_item_i&lt;/font&gt;&lt;/div&gt;&lt;div style=&quot;font-size: 5px;&quot;&gt;&lt;font style=&quot;font-size: 5px;&quot;&gt;订单明细表&lt;/font&gt;&lt;/div&gt;" style="rounded=0;whiteSpace=wrap;html=1;" parent="1" vertex="1">
          <mxGeometry x="290" y="545" width="50" height="40" as="geometry" />
        </mxCell>
        <mxCell id="M7vRHAxpr6XtETw_-yY6-72" style="edgeStyle=orthogonalEdgeStyle;rounded=0;orthogonalLoop=1;jettySize=auto;html=1;exitX=0.5;exitY=0;exitDx=0;exitDy=0;" edge="1" parent="1" source="gCYg-Fghnj7vj3xY7Wb9-104">
          <mxGeometry relative="1" as="geometry">
            <mxPoint x="360" y="500" as="targetPoint" />
          </mxGeometry>
        </mxCell>
        <mxCell id="gCYg-Fghnj7vj3xY7Wb9-104" value="&lt;font style=&quot;font-size: 5px;&quot;&gt;dwd_sold_shop&lt;/font&gt;&lt;div style=&quot;font-size: 5px;&quot;&gt;&lt;font style=&quot;font-size: 5px;&quot;&gt;order_i&lt;/font&gt;&lt;/div&gt;&lt;div style=&quot;font-size: 5px;&quot;&gt;&lt;font style=&quot;font-size: 5px;&quot;&gt;商城订单表&lt;/font&gt;&lt;/div&gt;" style="rounded=0;whiteSpace=wrap;html=1;" parent="1" vertex="1">
          <mxGeometry x="345" y="545" width="40" height="40" as="geometry" />
        </mxCell>
        <mxCell id="M7vRHAxpr6XtETw_-yY6-62" style="edgeStyle=orthogonalEdgeStyle;rounded=0;orthogonalLoop=1;jettySize=auto;html=1;entryX=0.5;entryY=1;entryDx=0;entryDy=0;" edge="1" parent="1" source="gCYg-Fghnj7vj3xY7Wb9-105" target="gCYg-Fghnj7vj3xY7Wb9-127">
          <mxGeometry relative="1" as="geometry" />
        </mxCell>
        <mxCell id="gCYg-Fghnj7vj3xY7Wb9-105" value="&lt;font style=&quot;font-size: 5px;&quot;&gt;dwd_order_store_&lt;/font&gt;&lt;div style=&quot;font-size: 5px;&quot;&gt;&lt;font style=&quot;font-size: 5px;&quot;&gt;turn_to_dc_i&lt;/font&gt;&lt;/div&gt;&lt;div style=&quot;font-size: 5px;&quot;&gt;&lt;font style=&quot;font-size: 5px;&quot;&gt;门店推货单&lt;/font&gt;&lt;/div&gt;" style="rounded=0;whiteSpace=wrap;html=1;" parent="1" vertex="1">
          <mxGeometry x="167.5" y="562.5" width="40" height="42.5" as="geometry" />
        </mxCell>
        <mxCell id="gCYg-Fghnj7vj3xY7Wb9-107" value="&lt;font style=&quot;font-size: 5px;&quot;&gt;dwd_sale_shop_sale&lt;/font&gt;&lt;div style=&quot;font-size: 5px;&quot;&gt;&lt;font style=&quot;font-size: 5px;&quot;&gt;balance_pay_i&lt;/font&gt;&lt;/div&gt;&lt;div style=&quot;font-size: 5px;&quot;&gt;&lt;font style=&quot;font-size: 5px;&quot;&gt;线上余额支付明细&lt;/font&gt;&lt;/div&gt;" style="rounded=0;whiteSpace=wrap;html=1;" parent="1" vertex="1">
          <mxGeometry x="235" y="545" width="50" height="40" as="geometry" />
        </mxCell>
        <mxCell id="gCYg-Fghnj7vj3xY7Wb9-108" value="&lt;font style=&quot;font-size: 6px;&quot;&gt;dwd_dim_date_f&lt;/font&gt;&lt;div style=&quot;font-size: 6px;&quot;&gt;&lt;font style=&quot;font-size: 6px;&quot;&gt;时间维度表&lt;/font&gt;&lt;/div&gt;" style="ellipse;whiteSpace=wrap;html=1;" parent="1" vertex="1">
          <mxGeometry x="450" y="465" width="60" height="35" as="geometry" />
        </mxCell>
        <mxCell id="gCYg-Fghnj7vj3xY7Wb9-109" value="&lt;font style=&quot;font-size: 6px;&quot;&gt;dwd_dim_category&lt;/font&gt;&lt;div style=&quot;font-size: 6px;&quot;&gt;&lt;font style=&quot;font-size: 6px;&quot;&gt;_statistics_i&lt;/font&gt;&lt;/div&gt;&lt;div style=&quot;font-size: 6px;&quot;&gt;&lt;font style=&quot;font-size: 6px;&quot;&gt;分类等级表&lt;/font&gt;&lt;/div&gt;" style="ellipse;whiteSpace=wrap;html=1;" parent="1" vertex="1">
          <mxGeometry x="450" y="530" width="60" height="35" as="geometry" />
        </mxCell>
        <mxCell id="gCYg-Fghnj7vj3xY7Wb9-116" value="&lt;font style=&quot;font-size: 6px;&quot;&gt;dwd_dim_source&lt;/font&gt;&lt;div style=&quot;font-size: 6px;&quot;&gt;&lt;font style=&quot;font-size: 6px;&quot;&gt;_type_map_i&lt;/font&gt;&lt;/div&gt;&lt;div style=&quot;font-size: 6px;&quot;&gt;&lt;font style=&quot;font-size: 6px;&quot;&gt;交易类型映射表&lt;/font&gt;&lt;/div&gt;" style="ellipse;whiteSpace=wrap;html=1;" parent="1" vertex="1">
          <mxGeometry x="670" y="492.5" width="60" height="35" as="geometry" />
        </mxCell>
        <mxCell id="gCYg-Fghnj7vj3xY7Wb9-117" value="&lt;font style=&quot;font-size: 6px;&quot;&gt;dwd_dim_store&lt;/font&gt;&lt;div style=&quot;font-size: 6px;&quot;&gt;&lt;font style=&quot;font-size: 6px;&quot;&gt;_goods_i&lt;/font&gt;&lt;/div&gt;&lt;div style=&quot;font-size: 6px;&quot;&gt;&lt;font style=&quot;font-size: 6px;&quot;&gt;门店商品信息&lt;/font&gt;&lt;/div&gt;" style="ellipse;whiteSpace=wrap;html=1;" parent="1" vertex="1">
          <mxGeometry x="527.5" y="465" width="60" height="35" as="geometry" />
        </mxCell>
        <mxCell id="gCYg-Fghnj7vj3xY7Wb9-118" value="&lt;font style=&quot;font-size: 5px;&quot;&gt;dwd_dim_store_clear&lt;/font&gt;&lt;div style=&quot;font-size: 5px;&quot;&gt;&lt;font style=&quot;font-size: 5px;&quot;&gt;_goods_i&lt;/font&gt;&lt;/div&gt;&lt;div style=&quot;font-size: 5px;&quot;&gt;&lt;font style=&quot;font-size: 5px;&quot;&gt;门店日清商品信息&lt;/font&gt;&lt;/div&gt;" style="ellipse;whiteSpace=wrap;html=1;" parent="1" vertex="1">
          <mxGeometry x="522.5" y="527.5" width="60" height="35" as="geometry" />
        </mxCell>
        <mxCell id="gCYg-Fghnj7vj3xY7Wb9-119" value="&lt;font style=&quot;font-size: 7px;&quot;&gt;dwd_dim_store_i&lt;/font&gt;&lt;div style=&quot;font-size: 7px;&quot;&gt;&lt;font style=&quot;font-size: 7px;&quot;&gt;门店表&lt;/font&gt;&lt;/div&gt;" style="ellipse;whiteSpace=wrap;html=1;" parent="1" vertex="1">
          <mxGeometry x="600" y="462.5" width="60" height="35" as="geometry" />
        </mxCell>
        <mxCell id="gCYg-Fghnj7vj3xY7Wb9-120" value="&lt;font style=&quot;font-size: 7px;&quot;&gt;dwd_dim_goods&lt;/font&gt;&lt;div style=&quot;font-size: 7px;&quot;&gt;&lt;font style=&quot;font-size: 7px;&quot;&gt;_i&lt;/font&gt;&lt;/div&gt;&lt;div style=&quot;font-size: 7px;&quot;&gt;&lt;font style=&quot;font-size: 7px;&quot;&gt;商品表&lt;/font&gt;&lt;/div&gt;" style="ellipse;whiteSpace=wrap;html=1;" parent="1" vertex="1">
          <mxGeometry x="600" y="527.5" width="60" height="35" as="geometry" />
        </mxCell>
        <mxCell id="M7vRHAxpr6XtETw_-yY6-73" style="edgeStyle=orthogonalEdgeStyle;rounded=0;orthogonalLoop=1;jettySize=auto;html=1;entryX=0.5;entryY=1;entryDx=0;entryDy=0;" edge="1" parent="1" source="gCYg-Fghnj7vj3xY7Wb9-121" target="gCYg-Fghnj7vj3xY7Wb9-131">
          <mxGeometry relative="1" as="geometry">
            <Array as="points">
              <mxPoint x="810" y="430" />
              <mxPoint x="740" y="430" />
            </Array>
          </mxGeometry>
        </mxCell>
        <mxCell id="gCYg-Fghnj7vj3xY7Wb9-121" value="&lt;font style=&quot;font-size: 6px;&quot;&gt;dwd_mem_member_&lt;/font&gt;&lt;div style=&quot;font-size: 6px;&quot;&gt;&lt;font style=&quot;font-size: 6px;&quot;&gt;union_i&lt;/font&gt;&lt;/div&gt;&lt;div style=&quot;font-size: 6px;&quot;&gt;&lt;font style=&quot;font-size: 6px;&quot;&gt;会员基础信息表&lt;/font&gt;&lt;/div&gt;" style="rounded=0;whiteSpace=wrap;html=1;" parent="1" vertex="1">
          <mxGeometry x="780" y="490" width="60" height="40" as="geometry" />
        </mxCell>
        <mxCell id="M7vRHAxpr6XtETw_-yY6-74" style="edgeStyle=orthogonalEdgeStyle;rounded=0;orthogonalLoop=1;jettySize=auto;html=1;" edge="1" parent="1" source="gCYg-Fghnj7vj3xY7Wb9-122">
          <mxGeometry relative="1" as="geometry">
            <mxPoint x="740" y="370" as="targetPoint" />
            <Array as="points">
              <mxPoint x="880" y="430" />
              <mxPoint x="741" y="430" />
              <mxPoint x="741" y="370" />
            </Array>
          </mxGeometry>
        </mxCell>
        <mxCell id="gCYg-Fghnj7vj3xY7Wb9-122" value="&lt;font style=&quot;font-size: 6px;&quot;&gt;dwd_mem_member_&lt;/font&gt;&lt;div style=&quot;font-size: 6px;&quot;&gt;&lt;font style=&quot;font-size: 6px;&quot;&gt;point_change_i&lt;/font&gt;&lt;/div&gt;&lt;div style=&quot;font-size: 6px;&quot;&gt;&lt;font style=&quot;font-size: 6px;&quot;&gt;会员积分变动表&lt;br&gt;&lt;/font&gt;&lt;div&gt;&lt;br&gt;&lt;/div&gt;&lt;/div&gt;" style="rounded=0;whiteSpace=wrap;html=1;" parent="1" vertex="1">
          <mxGeometry x="850" y="490" width="60" height="40" as="geometry" />
        </mxCell>
        <mxCell id="M7vRHAxpr6XtETw_-yY6-75" style="edgeStyle=orthogonalEdgeStyle;rounded=0;orthogonalLoop=1;jettySize=auto;html=1;entryX=0.5;entryY=1;entryDx=0;entryDy=0;" edge="1" parent="1" source="gCYg-Fghnj7vj3xY7Wb9-123" target="gCYg-Fghnj7vj3xY7Wb9-131">
          <mxGeometry relative="1" as="geometry">
            <Array as="points">
              <mxPoint x="950" y="430" />
              <mxPoint x="740" y="430" />
            </Array>
          </mxGeometry>
        </mxCell>
        <mxCell id="gCYg-Fghnj7vj3xY7Wb9-123" value="&lt;font style=&quot;font-size: 6px;&quot;&gt;dwd_men_balance&lt;/font&gt;&lt;div style=&quot;font-size: 6px;&quot;&gt;&lt;font style=&quot;font-size: 6px;&quot;&gt;_change_i&lt;/font&gt;&lt;/div&gt;&lt;div style=&quot;font-size: 6px;&quot;&gt;&lt;font style=&quot;font-size: 6px;&quot;&gt;线上会员每日余额表&lt;/font&gt;&lt;/div&gt;" style="rounded=0;whiteSpace=wrap;html=1;" parent="1" vertex="1">
          <mxGeometry x="920" y="490" width="60" height="40" as="geometry" />
        </mxCell>
        <mxCell id="gCYg-Fghnj7vj3xY7Wb9-124" value="&lt;font style=&quot;font-size: 7px;&quot;&gt;dwd_mem_balance&lt;/font&gt;&lt;div style=&quot;font-size: 7px;&quot;&gt;&lt;font style=&quot;font-size: 7px;&quot;&gt;_online_i&lt;/font&gt;&lt;/div&gt;&lt;div style=&quot;font-size: 7px;&quot;&gt;&lt;font style=&quot;font-size: 7px;&quot;&gt;线上会员每日余额表&lt;/font&gt;&lt;/div&gt;" style="rounded=0;whiteSpace=wrap;html=1;" parent="1" vertex="1">
          <mxGeometry x="990" y="490" width="60" height="40" as="geometry" />
        </mxCell>
        <mxCell id="gCYg-Fghnj7vj3xY7Wb9-125" value="&lt;font style=&quot;font-size: 6px;&quot;&gt;dwm_stock_store_&lt;/font&gt;&lt;div&gt;&lt;font style=&quot;font-size: 6px;&quot;&gt;goods_loss_quarter_i&lt;/font&gt;&lt;div style=&quot;font-size: 6px;&quot;&gt;&lt;font style=&quot;font-size: 6px;&quot;&gt;门店商品损耗表&lt;/font&gt;&lt;/div&gt;&lt;/div&gt;" style="rounded=0;whiteSpace=wrap;html=1;" parent="1" vertex="1">
          <mxGeometry x="80" y="330" width="60" height="40" as="geometry" />
        </mxCell>
        <mxCell id="gCYg-Fghnj7vj3xY7Wb9-127" value="&lt;font style=&quot;font-size: 6px;&quot;&gt;dwm_order_store_&lt;/font&gt;&lt;div style=&quot;font-size: 6px;&quot;&gt;&lt;font style=&quot;font-size: 6px;&quot;&gt;goods_receipt_&lt;/font&gt;&lt;/div&gt;&lt;div style=&quot;font-size: 6px;&quot;&gt;&lt;font style=&quot;font-size: 6px;&quot;&gt;quarter_i&lt;/font&gt;&lt;/div&gt;&lt;div style=&quot;font-size: 6px;&quot;&gt;&lt;font style=&quot;font-size: 6px;&quot;&gt;门店商品收货刻度表&lt;/font&gt;&lt;/div&gt;" style="rounded=0;whiteSpace=wrap;html=1;" parent="1" vertex="1">
          <mxGeometry x="157.5" y="330" width="60" height="45" as="geometry" />
        </mxCell>
        <mxCell id="gCYg-Fghnj7vj3xY7Wb9-128" value="&lt;font style=&quot;font-size: 6px;&quot;&gt;dwm_order_store_&lt;/font&gt;&lt;div style=&quot;font-size: 6px;&quot;&gt;&lt;font style=&quot;font-size: 6px;&quot;&gt;goods_require_&lt;/font&gt;&lt;/div&gt;&lt;div style=&quot;font-size: 6px;&quot;&gt;&lt;font style=&quot;font-size: 6px;&quot;&gt;quarter_i&lt;/font&gt;&lt;/div&gt;&lt;div style=&quot;font-size: 6px;&quot;&gt;&lt;font style=&quot;font-size: 6px;&quot;&gt;门店商品要货刻度表&lt;/font&gt;&lt;/div&gt;" style="rounded=0;whiteSpace=wrap;html=1;" parent="1" vertex="1">
          <mxGeometry x="240" y="330" width="60" height="40" as="geometry" />
        </mxCell>
        <mxCell id="gCYg-Fghnj7vj3xY7Wb9-129" value="&lt;font style=&quot;font-size: 6px;&quot;&gt;dwm_sold_goods&lt;/font&gt;&lt;div style=&quot;font-size: 6px;&quot;&gt;&lt;font style=&quot;font-size: 6px;&quot;&gt;_sold_dtl_i&lt;/font&gt;&lt;/div&gt;&lt;div style=&quot;font-size: 6px;&quot;&gt;&lt;font style=&quot;font-size: 6px;&quot;&gt;门店商品销售信息表&lt;/font&gt;&lt;/div&gt;" style="rounded=0;whiteSpace=wrap;html=1;" parent="1" vertex="1">
          <mxGeometry x="320" y="330" width="60" height="40" as="geometry" />
        </mxCell>
        <mxCell id="M7vRHAxpr6XtETw_-yY6-79" style="edgeStyle=orthogonalEdgeStyle;rounded=0;orthogonalLoop=1;jettySize=auto;html=1;entryX=0.5;entryY=1;entryDx=0;entryDy=0;" edge="1" parent="1" source="gCYg-Fghnj7vj3xY7Wb9-130" target="M7vRHAxpr6XtETw_-yY6-39">
          <mxGeometry relative="1" as="geometry">
            <Array as="points">
              <mxPoint x="640" y="400" />
              <mxPoint x="840" y="400" />
            </Array>
          </mxGeometry>
        </mxCell>
        <mxCell id="M7vRHAxpr6XtETw_-yY6-82" style="edgeStyle=orthogonalEdgeStyle;rounded=0;orthogonalLoop=1;jettySize=auto;html=1;entryX=0;entryY=0.5;entryDx=0;entryDy=0;" edge="1" parent="1" source="gCYg-Fghnj7vj3xY7Wb9-130" target="M7vRHAxpr6XtETw_-yY6-32">
          <mxGeometry relative="1" as="geometry">
            <Array as="points">
              <mxPoint x="640" y="220" />
            </Array>
          </mxGeometry>
        </mxCell>
        <mxCell id="gCYg-Fghnj7vj3xY7Wb9-130" value="&lt;font style=&quot;font-size: 7px;&quot;&gt;dwm.dwn_sell_o2o_&lt;/font&gt;&lt;div style=&quot;font-size: 7px;&quot;&gt;&lt;font style=&quot;font-size: 7px;&quot;&gt;order_i&lt;/font&gt;&lt;/div&gt;&lt;div style=&quot;font-size: 7px;&quot;&gt;&lt;font style=&quot;font-size: 7px;&quot;&gt;售卖主题零售订单信息表&lt;/font&gt;&lt;/div&gt;" style="rounded=0;whiteSpace=wrap;html=1;" parent="1" vertex="1">
          <mxGeometry x="600" y="330" width="80" height="50" as="geometry" />
        </mxCell>
        <mxCell id="M7vRHAxpr6XtETw_-yY6-83" style="edgeStyle=orthogonalEdgeStyle;rounded=0;orthogonalLoop=1;jettySize=auto;html=1;exitX=0.5;exitY=0;exitDx=0;exitDy=0;entryX=0;entryY=0.25;entryDx=0;entryDy=0;" edge="1" parent="1" source="gCYg-Fghnj7vj3xY7Wb9-131" target="M7vRHAxpr6XtETw_-yY6-32">
          <mxGeometry relative="1" as="geometry" />
        </mxCell>
        <mxCell id="M7vRHAxpr6XtETw_-yY6-84" style="edgeStyle=orthogonalEdgeStyle;rounded=0;orthogonalLoop=1;jettySize=auto;html=1;entryX=0.25;entryY=1;entryDx=0;entryDy=0;" edge="1" parent="1" source="gCYg-Fghnj7vj3xY7Wb9-131" target="M7vRHAxpr6XtETw_-yY6-33">
          <mxGeometry relative="1" as="geometry">
            <Array as="points">
              <mxPoint x="740" y="280" />
              <mxPoint x="1004" y="280" />
            </Array>
          </mxGeometry>
        </mxCell>
        <mxCell id="gCYg-Fghnj7vj3xY7Wb9-131" value="&lt;span style=&quot;font-size: 7px;&quot;&gt;dwm_mem_member_&lt;/span&gt;&lt;div&gt;&lt;span style=&quot;font-size: 7px;&quot;&gt;behavior_day_i&lt;/span&gt;&lt;/div&gt;&lt;div&gt;&lt;span style=&quot;font-size: 7px;&quot;&gt;会员行为天表&lt;/span&gt;&lt;/div&gt;" style="rounded=0;whiteSpace=wrap;html=1;" parent="1" vertex="1">
          <mxGeometry x="700" y="330" width="80" height="50" as="geometry" />
        </mxCell>
        <mxCell id="M7vRHAxpr6XtETw_-yY6-80" style="edgeStyle=orthogonalEdgeStyle;rounded=0;orthogonalLoop=1;jettySize=auto;html=1;entryX=0.75;entryY=1;entryDx=0;entryDy=0;" edge="1" parent="1" source="gCYg-Fghnj7vj3xY7Wb9-133" target="gCYg-Fghnj7vj3xY7Wb9-131">
          <mxGeometry relative="1" as="geometry">
            <Array as="points">
              <mxPoint x="940" y="390" />
              <mxPoint x="760" y="390" />
            </Array>
          </mxGeometry>
        </mxCell>
        <mxCell id="M7vRHAxpr6XtETw_-yY6-86" style="edgeStyle=orthogonalEdgeStyle;rounded=0;orthogonalLoop=1;jettySize=auto;html=1;entryX=0.75;entryY=1;entryDx=0;entryDy=0;" edge="1" parent="1" source="gCYg-Fghnj7vj3xY7Wb9-133" target="M7vRHAxpr6XtETw_-yY6-33">
          <mxGeometry relative="1" as="geometry">
            <Array as="points">
              <mxPoint x="940" y="320" />
              <mxPoint x="1044" y="320" />
            </Array>
          </mxGeometry>
        </mxCell>
        <mxCell id="gCYg-Fghnj7vj3xY7Wb9-133" value="&lt;font style=&quot;font-size: 7px;&quot;&gt;dwm_mem_first_buy&lt;/font&gt;&lt;div style=&quot;font-size: 7px;&quot;&gt;&lt;font style=&quot;font-size: 7px;&quot;&gt;_i&lt;/font&gt;&lt;/div&gt;&lt;div style=&quot;font-size: 7px;&quot;&gt;&lt;font style=&quot;font-size: 7px;&quot;&gt;会员首次消费表&lt;/font&gt;&lt;/div&gt;" style="rounded=0;whiteSpace=wrap;html=1;" parent="1" vertex="1">
          <mxGeometry x="900" y="330" width="80" height="50" as="geometry" />
        </mxCell>
        <mxCell id="M7vRHAxpr6XtETw_-yY6-87" style="edgeStyle=orthogonalEdgeStyle;rounded=0;orthogonalLoop=1;jettySize=auto;html=1;exitX=0.75;exitY=0;exitDx=0;exitDy=0;entryX=1;entryY=1;entryDx=0;entryDy=0;" edge="1" parent="1" source="gCYg-Fghnj7vj3xY7Wb9-134" target="M7vRHAxpr6XtETw_-yY6-33">
          <mxGeometry relative="1" as="geometry" />
        </mxCell>
        <mxCell id="gCYg-Fghnj7vj3xY7Wb9-134" value="&lt;font style=&quot;font-size: 7px;&quot;&gt;dwm_mem_second_&lt;/font&gt;&lt;div style=&quot;font-size: 7px;&quot;&gt;&lt;font style=&quot;font-size: 7px;&quot;&gt;buy_ii&lt;/font&gt;&lt;/div&gt;&lt;div style=&quot;font-size: 7px;&quot;&gt;&lt;font style=&quot;font-size: 7px;&quot;&gt;会员二次消费表&lt;/font&gt;&lt;/div&gt;" style="rounded=0;whiteSpace=wrap;html=1;" parent="1" vertex="1">
          <mxGeometry x="990" y="330" width="80" height="50" as="geometry" />
        </mxCell>
        <mxCell id="M7vRHAxpr6XtETw_-yY6-56" style="edgeStyle=orthogonalEdgeStyle;rounded=0;orthogonalLoop=1;jettySize=auto;html=1;exitX=1;exitY=0;exitDx=0;exitDy=0;entryX=1;entryY=1;entryDx=0;entryDy=0;" edge="1" parent="1" source="gCYg-Fghnj7vj3xY7Wb9-135" target="M7vRHAxpr6XtETw_-yY6-13">
          <mxGeometry relative="1" as="geometry" />
        </mxCell>
        <mxCell id="gCYg-Fghnj7vj3xY7Wb9-135" value="&lt;font style=&quot;font-size: 10px;&quot;&gt;门店商品销售刻表：dws_goods_store_goods_statistics_quartar_&lt;/font&gt;i&lt;div&gt;&lt;font style=&quot;font-size: 10px;&quot;&gt;22个指标&lt;/font&gt;&lt;/div&gt;" style="rounded=0;whiteSpace=wrap;html=1;" parent="1" vertex="1">
          <mxGeometry x="90" y="190" width="220" height="50" as="geometry" />
        </mxCell>
        <mxCell id="gCYg-Fghnj7vj3xY7Wb9-136" value="&lt;font style=&quot;font-size: 4px;&quot;&gt;门店经营分析刻表&lt;/font&gt;&lt;div style=&quot;font-size: 4px;&quot;&gt;&lt;font style=&quot;font-size: 4px;&quot;&gt;dws_store_manage_statistics_quarter_i&lt;/font&gt;&lt;/div&gt;&lt;div style=&quot;font-size: 4px;&quot;&gt;&lt;font style=&quot;font-size: 4px;&quot;&gt;29个指标&lt;/font&gt;&lt;/div&gt;" style="rounded=0;whiteSpace=wrap;html=1;" parent="1" vertex="1">
          <mxGeometry x="340" y="190" width="80" height="50" as="geometry" />
        </mxCell>
        <mxCell id="gCYg-Fghnj7vj3xY7Wb9-137" value="核销主题" style="rounded=0;whiteSpace=wrap;html=1;" parent="1" vertex="1">
          <mxGeometry x="80" y="60" width="470" height="20" as="geometry" />
        </mxCell>
        <mxCell id="gCYg-Fghnj7vj3xY7Wb9-138" value="商品销售分析" style="rounded=0;whiteSpace=wrap;html=1;" parent="1" vertex="1">
          <mxGeometry x="80" y="90" width="230" height="20" as="geometry" />
        </mxCell>
        <mxCell id="gCYg-Fghnj7vj3xY7Wb9-140" value="门店销售分析" style="rounded=0;whiteSpace=wrap;html=1;" parent="1" vertex="1">
          <mxGeometry x="420" y="90" width="130" height="20" as="geometry" />
        </mxCell>
        <mxCell id="M7vRHAxpr6XtETw_-yY6-5" value="会员主题" style="rounded=0;whiteSpace=wrap;html=1;" vertex="1" parent="1">
          <mxGeometry x="594" y="60" width="470" height="20" as="geometry" />
        </mxCell>
        <mxCell id="M7vRHAxpr6XtETw_-yY6-6" value="会员活跃贡献分析" style="rounded=0;whiteSpace=wrap;html=1;" vertex="1" parent="1">
          <mxGeometry x="594" y="90" width="230" height="20" as="geometry" />
        </mxCell>
        <mxCell id="M7vRHAxpr6XtETw_-yY6-7" value="会员分析人数分析" style="rounded=0;whiteSpace=wrap;html=1;" vertex="1" parent="1">
          <mxGeometry x="954" y="90" width="110" height="20" as="geometry" />
        </mxCell>
        <mxCell id="M7vRHAxpr6XtETw_-yY6-8" value="门店会员分析" style="rounded=0;whiteSpace=wrap;html=1;" vertex="1" parent="1">
          <mxGeometry x="834" y="90" width="110" height="20" as="geometry" />
        </mxCell>
        <mxCell id="M7vRHAxpr6XtETw_-yY6-9" value="&lt;font style=&quot;font-size: 4px;&quot;&gt;门店商品销售天表&lt;/font&gt;" style="rounded=0;whiteSpace=wrap;html=1;" vertex="1" parent="1">
          <mxGeometry x="80" y="120" width="40" height="20" as="geometry" />
        </mxCell>
        <mxCell id="M7vRHAxpr6XtETw_-yY6-10" value="&lt;font style=&quot;font-size: 4px;&quot;&gt;城市商品销售天表&lt;/font&gt;" style="rounded=0;whiteSpace=wrap;html=1;" vertex="1" parent="1">
          <mxGeometry x="130" y="120" width="40" height="20" as="geometry" />
        </mxCell>
        <mxCell id="M7vRHAxpr6XtETw_-yY6-11" value="&lt;font style=&quot;font-size: 4px;&quot;&gt;门店第一品类销售天表&lt;/font&gt;" style="rounded=0;whiteSpace=wrap;html=1;" vertex="1" parent="1">
          <mxGeometry x="172.5" y="120" width="45" height="20" as="geometry" />
        </mxCell>
        <mxCell id="M7vRHAxpr6XtETw_-yY6-12" value="&lt;font style=&quot;font-size: 3px;&quot;&gt;门店第二品类销售天表&lt;/font&gt;" style="rounded=0;whiteSpace=wrap;html=1;" vertex="1" parent="1">
          <mxGeometry x="220" y="120" width="40" height="20" as="geometry" />
        </mxCell>
        <mxCell id="M7vRHAxpr6XtETw_-yY6-13" value="&lt;font style=&quot;font-size: 3px;&quot;&gt;门店第三品类销售天表&lt;/font&gt;" style="rounded=0;whiteSpace=wrap;html=1;" vertex="1" parent="1">
          <mxGeometry x="270" y="120" width="40" height="20" as="geometry" />
        </mxCell>
        <mxCell id="M7vRHAxpr6XtETw_-yY6-17" value="&lt;font style=&quot;font-size: 4px;&quot;&gt;门店经营分析天表&lt;/font&gt;" style="rounded=0;whiteSpace=wrap;html=1;" vertex="1" parent="1">
          <mxGeometry x="320" y="120" width="40" height="20" as="geometry" />
        </mxCell>
        <mxCell id="M7vRHAxpr6XtETw_-yY6-18" value="&lt;font style=&quot;font-size: 4px;&quot;&gt;城市经营分析天表&lt;/font&gt;" style="rounded=0;whiteSpace=wrap;html=1;" vertex="1" parent="1">
          <mxGeometry x="370" y="120" width="40" height="20" as="geometry" />
        </mxCell>
        <mxCell id="M7vRHAxpr6XtETw_-yY6-19" value="&lt;font style=&quot;font-size: 3px;&quot;&gt;门店销售渠道分析天表&lt;/font&gt;" style="rounded=0;whiteSpace=wrap;html=1;" vertex="1" parent="1">
          <mxGeometry x="420" y="120" width="40" height="20" as="geometry" />
        </mxCell>
        <mxCell id="M7vRHAxpr6XtETw_-yY6-20" value="&lt;font style=&quot;font-size: 3px;&quot;&gt;门店品类日清商品分析天表&lt;/font&gt;" style="rounded=0;whiteSpace=wrap;html=1;" vertex="1" parent="1">
          <mxGeometry x="465" y="120" width="40" height="20" as="geometry" />
        </mxCell>
        <mxCell id="M7vRHAxpr6XtETw_-yY6-21" value="&lt;font style=&quot;font-size: 3px;&quot;&gt;门店日清商品分析天表&lt;/font&gt;" style="rounded=0;whiteSpace=wrap;html=1;" vertex="1" parent="1">
          <mxGeometry x="510" y="120" width="40" height="20" as="geometry" />
        </mxCell>
        <mxCell id="M7vRHAxpr6XtETw_-yY6-23" value="整体经营分析" style="rounded=0;whiteSpace=wrap;html=1;" vertex="1" parent="1">
          <mxGeometry x="320" y="90" width="90" height="20" as="geometry" />
        </mxCell>
        <mxCell id="M7vRHAxpr6XtETw_-yY6-24" value="&lt;font style=&quot;font-size: 5px;&quot;&gt;会员首次充值表&lt;/font&gt;" style="rounded=0;whiteSpace=wrap;html=1;" vertex="1" parent="1">
          <mxGeometry x="594" y="120" width="56" height="20" as="geometry" />
        </mxCell>
        <mxCell id="M7vRHAxpr6XtETw_-yY6-26" value="&lt;font style=&quot;font-size: 5px;&quot;&gt;门店新老会员消费月表&lt;/font&gt;" style="rounded=0;whiteSpace=wrap;html=1;" vertex="1" parent="1">
          <mxGeometry x="681" y="120" width="56" height="20" as="geometry" />
        </mxCell>
        <mxCell id="M7vRHAxpr6XtETw_-yY6-27" value="&lt;font style=&quot;font-size: 5px;&quot;&gt;会员复购统计天表&lt;/font&gt;" style="rounded=0;whiteSpace=wrap;html=1;" vertex="1" parent="1">
          <mxGeometry x="768" y="120" width="56" height="20" as="geometry" />
        </mxCell>
        <mxCell id="M7vRHAxpr6XtETw_-yY6-28" value="&lt;font style=&quot;font-size: 5px;&quot;&gt;门店会员分析周表&lt;/font&gt;" style="rounded=0;whiteSpace=wrap;html=1;" vertex="1" parent="1">
          <mxGeometry x="834" y="120" width="46" height="20" as="geometry" />
        </mxCell>
        <mxCell id="M7vRHAxpr6XtETw_-yY6-29" value="&lt;font style=&quot;font-size: 5px;&quot;&gt;门店会员分析月表&lt;/font&gt;" style="rounded=0;whiteSpace=wrap;html=1;" vertex="1" parent="1">
          <mxGeometry x="888" y="120" width="56" height="20" as="geometry" />
        </mxCell>
        <mxCell id="M7vRHAxpr6XtETw_-yY6-30" value="&lt;font style=&quot;font-size: 5px;&quot;&gt;门店会员分类统计周表&lt;/font&gt;" style="rounded=0;whiteSpace=wrap;html=1;" vertex="1" parent="1">
          <mxGeometry x="954" y="120" width="56" height="20" as="geometry" />
        </mxCell>
        <mxCell id="M7vRHAxpr6XtETw_-yY6-31" value="&lt;font style=&quot;font-size: 5px;&quot;&gt;门店会员分类统计月表&lt;/font&gt;" style="rounded=0;whiteSpace=wrap;html=1;" vertex="1" parent="1">
          <mxGeometry x="1014" y="120" width="56" height="20" as="geometry" />
        </mxCell>
        <mxCell id="M7vRHAxpr6XtETw_-yY6-32" value="&lt;font style=&quot;font-size: 6px;&quot;&gt;dws_mem_store_member_&lt;/font&gt;&lt;div style=&quot;font-size: 6px;&quot;&gt;&lt;font style=&quot;font-size: 6px;&quot;&gt;statistics_day_i&lt;/font&gt;&lt;/div&gt;&lt;div style=&quot;font-size: 6px;&quot;&gt;&lt;font style=&quot;font-size: 6px;&quot;&gt;门店会员分析天表（25个指标）&lt;/font&gt;&lt;/div&gt;" style="rounded=0;whiteSpace=wrap;html=1;" vertex="1" parent="1">
          <mxGeometry x="885" y="195" width="80" height="50" as="geometry" />
        </mxCell>
        <mxCell id="M7vRHAxpr6XtETw_-yY6-88" style="edgeStyle=orthogonalEdgeStyle;rounded=0;orthogonalLoop=1;jettySize=auto;html=1;exitX=0.5;exitY=0;exitDx=0;exitDy=0;entryX=0.5;entryY=1;entryDx=0;entryDy=0;" edge="1" parent="1" source="M7vRHAxpr6XtETw_-yY6-33" target="M7vRHAxpr6XtETw_-yY6-30">
          <mxGeometry relative="1" as="geometry" />
        </mxCell>
        <mxCell id="M7vRHAxpr6XtETw_-yY6-33" value="&lt;font style=&quot;font-size: 7px;&quot;&gt;dws_mem_store_member&lt;/font&gt;&lt;div style=&quot;font-size: 7px;&quot;&gt;&lt;font style=&quot;font-size: 7px;&quot;&gt;classify_day_i&lt;/font&gt;&lt;/div&gt;&lt;div style=&quot;font-size: 7px;&quot;&gt;&lt;font style=&quot;font-size: 7px;&quot;&gt;&lt;br&gt;&lt;/font&gt;&lt;/div&gt;&lt;div style=&quot;font-size: 7px;&quot;&gt;&lt;font style=&quot;font-size: 7px;&quot;&gt;门店会员分类统计天表&lt;/font&gt;&lt;/div&gt;" style="rounded=0;whiteSpace=wrap;html=1;" vertex="1" parent="1">
          <mxGeometry x="984" y="195" width="80" height="50" as="geometry" />
        </mxCell>
        <mxCell id="M7vRHAxpr6XtETw_-yY6-81" style="edgeStyle=orthogonalEdgeStyle;rounded=0;orthogonalLoop=1;jettySize=auto;html=1;exitX=0.75;exitY=1;exitDx=0;exitDy=0;entryX=0.5;entryY=1;entryDx=0;entryDy=0;" edge="1" parent="1" source="M7vRHAxpr6XtETw_-yY6-39" target="gCYg-Fghnj7vj3xY7Wb9-134">
          <mxGeometry relative="1" as="geometry" />
        </mxCell>
        <mxCell id="M7vRHAxpr6XtETw_-yY6-85" style="edgeStyle=orthogonalEdgeStyle;rounded=0;orthogonalLoop=1;jettySize=auto;html=1;" edge="1" parent="1" source="M7vRHAxpr6XtETw_-yY6-39">
          <mxGeometry relative="1" as="geometry">
            <mxPoint x="1000" y="260" as="targetPoint" />
            <Array as="points">
              <mxPoint x="840" y="290" />
              <mxPoint x="1001" y="290" />
              <mxPoint x="1001" y="260" />
            </Array>
          </mxGeometry>
        </mxCell>
        <mxCell id="M7vRHAxpr6XtETw_-yY6-39" value="&lt;font style=&quot;font-size: 7px;&quot;&gt;dwm_mem_sell_&lt;/font&gt;&lt;div style=&quot;font-size: 7px;&quot;&gt;&lt;font style=&quot;font-size: 7px;&quot;&gt;order_i&lt;/font&gt;&lt;/div&gt;&lt;div style=&quot;font-size: 7px;&quot;&gt;&lt;font style=&quot;font-size: 7px;&quot;&gt;会员销售订单表&lt;/font&gt;&lt;/div&gt;" style="rounded=0;whiteSpace=wrap;html=1;" vertex="1" parent="1">
          <mxGeometry x="800" y="330" width="80" height="50" as="geometry" />
        </mxCell>
        <mxCell id="M7vRHAxpr6XtETw_-yY6-40" style="edgeStyle=orthogonalEdgeStyle;rounded=0;orthogonalLoop=1;jettySize=auto;html=1;exitX=0;exitY=0;exitDx=0;exitDy=0;entryX=0.041;entryY=0.9;entryDx=0;entryDy=0;entryPerimeter=0;" edge="1" parent="1" source="gCYg-Fghnj7vj3xY7Wb9-135" target="gCYg-Fghnj7vj3xY7Wb9-24">
          <mxGeometry relative="1" as="geometry" />
        </mxCell>
        <mxCell id="M7vRHAxpr6XtETw_-yY6-46" style="edgeStyle=orthogonalEdgeStyle;rounded=0;orthogonalLoop=1;jettySize=auto;html=1;entryX=0.138;entryY=0.97;entryDx=0;entryDy=0;entryPerimeter=0;" edge="1" parent="1" source="gCYg-Fghnj7vj3xY7Wb9-125" target="gCYg-Fghnj7vj3xY7Wb9-135">
          <mxGeometry relative="1" as="geometry" />
        </mxCell>
        <mxCell id="M7vRHAxpr6XtETw_-yY6-49" style="edgeStyle=orthogonalEdgeStyle;rounded=0;orthogonalLoop=1;jettySize=auto;html=1;exitX=0.25;exitY=0;exitDx=0;exitDy=0;entryX=0.152;entryY=0.9;entryDx=0;entryDy=0;entryPerimeter=0;" edge="1" parent="1" source="gCYg-Fghnj7vj3xY7Wb9-135" target="gCYg-Fghnj7vj3xY7Wb9-24">
          <mxGeometry relative="1" as="geometry" />
        </mxCell>
        <mxCell id="M7vRHAxpr6XtETw_-yY6-50" style="edgeStyle=orthogonalEdgeStyle;rounded=0;orthogonalLoop=1;jettySize=auto;html=1;entryX=0.628;entryY=1.06;entryDx=0;entryDy=0;entryPerimeter=0;" edge="1" parent="1" source="gCYg-Fghnj7vj3xY7Wb9-135" target="M7vRHAxpr6XtETw_-yY6-11">
          <mxGeometry relative="1" as="geometry" />
        </mxCell>
        <mxCell id="M7vRHAxpr6XtETw_-yY6-55" style="edgeStyle=orthogonalEdgeStyle;rounded=0;orthogonalLoop=1;jettySize=auto;html=1;exitX=0.75;exitY=0;exitDx=0;exitDy=0;entryX=0.374;entryY=1.017;entryDx=0;entryDy=0;entryPerimeter=0;" edge="1" parent="1" source="gCYg-Fghnj7vj3xY7Wb9-135" target="gCYg-Fghnj7vj3xY7Wb9-24">
          <mxGeometry relative="1" as="geometry" />
        </mxCell>
        <mxCell id="M7vRHAxpr6XtETw_-yY6-57" style="edgeStyle=orthogonalEdgeStyle;rounded=0;orthogonalLoop=1;jettySize=auto;html=1;exitX=0.5;exitY=0;exitDx=0;exitDy=0;entryX=0.453;entryY=1.016;entryDx=0;entryDy=0;entryPerimeter=0;" edge="1" parent="1" source="gCYg-Fghnj7vj3xY7Wb9-127" target="gCYg-Fghnj7vj3xY7Wb9-135">
          <mxGeometry relative="1" as="geometry" />
        </mxCell>
        <mxCell id="M7vRHAxpr6XtETw_-yY6-58" style="edgeStyle=orthogonalEdgeStyle;rounded=0;orthogonalLoop=1;jettySize=auto;html=1;entryX=0.818;entryY=1;entryDx=0;entryDy=0;entryPerimeter=0;" edge="1" parent="1" source="gCYg-Fghnj7vj3xY7Wb9-128" target="gCYg-Fghnj7vj3xY7Wb9-135">
          <mxGeometry relative="1" as="geometry" />
        </mxCell>
        <mxCell id="M7vRHAxpr6XtETw_-yY6-59" style="edgeStyle=orthogonalEdgeStyle;rounded=0;orthogonalLoop=1;jettySize=auto;html=1;entryX=0.955;entryY=1;entryDx=0;entryDy=0;entryPerimeter=0;" edge="1" parent="1" source="gCYg-Fghnj7vj3xY7Wb9-129" target="gCYg-Fghnj7vj3xY7Wb9-135">
          <mxGeometry relative="1" as="geometry">
            <Array as="points">
              <mxPoint x="340" y="285" />
              <mxPoint x="300" y="285" />
            </Array>
          </mxGeometry>
        </mxCell>
        <mxCell id="M7vRHAxpr6XtETw_-yY6-60" style="edgeStyle=orthogonalEdgeStyle;rounded=0;orthogonalLoop=1;jettySize=auto;html=1;exitX=0.5;exitY=0;exitDx=0;exitDy=0;entryX=0.081;entryY=0.8;entryDx=0;entryDy=0;entryPerimeter=0;" edge="1" parent="1" source="gCYg-Fghnj7vj3xY7Wb9-92" target="gCYg-Fghnj7vj3xY7Wb9-28">
          <mxGeometry relative="1" as="geometry" />
        </mxCell>
        <mxCell id="M7vRHAxpr6XtETw_-yY6-70" style="edgeStyle=orthogonalEdgeStyle;rounded=0;orthogonalLoop=1;jettySize=auto;html=1;entryX=0.875;entryY=0.294;entryDx=0;entryDy=0;entryPerimeter=0;" edge="1" parent="1" source="gCYg-Fghnj7vj3xY7Wb9-107" target="gCYg-Fghnj7vj3xY7Wb9-30">
          <mxGeometry relative="1" as="geometry" />
        </mxCell>
        <mxCell id="M7vRHAxpr6XtETw_-yY6-77" style="edgeStyle=orthogonalEdgeStyle;rounded=0;orthogonalLoop=1;jettySize=auto;html=1;entryX=0.714;entryY=0.8;entryDx=0;entryDy=0;entryPerimeter=0;" edge="1" parent="1" source="gCYg-Fghnj7vj3xY7Wb9-124" target="gCYg-Fghnj7vj3xY7Wb9-27">
          <mxGeometry relative="1" as="geometry">
            <Array as="points">
              <mxPoint x="1090" y="510" />
              <mxPoint x="1090" y="300" />
              <mxPoint x="940" y="300" />
            </Array>
          </mxGeometry>
        </mxCell>
        <mxCell id="M7vRHAxpr6XtETw_-yY6-89" style="edgeStyle=orthogonalEdgeStyle;rounded=0;orthogonalLoop=1;jettySize=auto;html=1;exitX=0.5;exitY=0;exitDx=0;exitDy=0;entryX=0.979;entryY=0.989;entryDx=0;entryDy=0;entryPerimeter=0;" edge="1" parent="1" source="M7vRHAxpr6XtETw_-yY6-33" target="gCYg-Fghnj7vj3xY7Wb9-25">
          <mxGeometry relative="1" as="geometry" />
        </mxCell>
        <mxCell id="M7vRHAxpr6XtETw_-yY6-90" style="edgeStyle=orthogonalEdgeStyle;rounded=0;orthogonalLoop=1;jettySize=auto;html=1;exitX=0.25;exitY=0;exitDx=0;exitDy=0;entryX=0.604;entryY=0.9;entryDx=0;entryDy=0;entryPerimeter=0;" edge="1" parent="1" source="M7vRHAxpr6XtETw_-yY6-32" target="gCYg-Fghnj7vj3xY7Wb9-25">
          <mxGeometry relative="1" as="geometry" />
        </mxCell>
        <mxCell id="M7vRHAxpr6XtETw_-yY6-91" style="edgeStyle=orthogonalEdgeStyle;rounded=0;orthogonalLoop=1;jettySize=auto;html=1;exitX=0.75;exitY=0;exitDx=0;exitDy=0;entryX=0.703;entryY=0.999;entryDx=0;entryDy=0;entryPerimeter=0;" edge="1" parent="1" source="M7vRHAxpr6XtETw_-yY6-32" target="gCYg-Fghnj7vj3xY7Wb9-25">
          <mxGeometry relative="1" as="geometry" />
        </mxCell>
      </root>
    </mxGraphModel>
  </diagram>
</mxfile>
